<svg width="58" height="49" viewBox="0 0 58 49" fill="none" xmlns="http://www.w3.org/2000/svg">
<g clip-path="url(#clip0_1_77)">
<rect width="58" height="49" fill="white"/>
<rect x="2.5" y="3.5" width="53" height="42" stroke="#333366" stroke-width="3"/>
<path d="M12.5 15.5H23C24.75 15.5 26.0167 15.9 26.8 16.7C27.6 17.4833 28 18.75 28 20.5V22.75C28 24.1333 27.7667 25.2083 27.3 25.975C26.85 26.7417 26.125 27.25 25.125 27.5L28.25 33H23.375L20.5 27.75H17V33H12.5V15.5ZM23.5 20.5C23.5 19.5 23 19 22 19H17V24.25H22C23 24.25 23.5 23.75 23.5 22.75V20.5ZM30.4932 15.5H40.9932C42.7432 15.5 44.0098 15.9 44.7932 16.7C45.5932 17.4833 45.9932 18.75 45.9932 20.5V22.75C45.9932 24.1333 45.7598 25.2083 45.2932 25.975C44.8432 26.7417 44.1182 27.25 43.1182 27.5L46.2432 33H41.3682L38.4932 27.75H34.9932V33H30.4932V15.5ZM41.4932 20.5C41.4932 19.5 40.9932 19 39.9932 19H34.9932V24.25H39.9932C40.9932 24.25 41.4932 23.75 41.4932 22.75V20.5Z" fill="#333366"/>
</g>
<defs>
<clipPath id="clip0_1_77">
<rect width="58" height="49" fill="white"/>
</clipPath>
</defs>
</svg>
